<svg version="1.0" xmlns="http://www.w3.org/2000/svg"
 width="1536.000000pt" height="1024.000000pt" viewBox="0 0 1536.000000 1024.000000"
 preserveAspectRatio="xMidYMid meet">

<g transform="translate(0.000000,1024.000000) scale(0.100000,-0.100000)"
fill="#c1c1c1" stroke="none">
<path d="M7930 7372 c-50 -23 -164 -99 -185 -124 -80 -95 -13 -238 113 -238
48 0 216 84 244 121 26 35 38 94 27 131 -22 77 -134 139 -199 110z"/>
<path d="M7320 7029 c-80 -45 -208 -118 -285 -163 -77 -46 -194 -114 -259
-151 -370 -212 -550 -439 -621 -785 -22 -104 -25 -322 -6 -430 16 -90 60 -220
107 -313 93 -186 287 -378 481 -476 132 -66 326 -111 475 -111 155 1 354 46
504 115 77 35 433 241 611 352 59 38 154 95 210 128 118 68 143 101 143 184 0
44 -5 56 -35 90 -45 49 -106 68 -162 48 -21 -7 -98 -48 -172 -90 -152 -87
-187 -94 -254 -54 -94 57 -105 170 -24 245 30 28 34 31 662 385 88 50 205 118
260 153 55 34 129 77 165 96 53 27 69 41 88 78 33 65 27 129 -18 175 -70 72
-137 71 -267 -3 -48 -27 -146 -83 -218 -124 -589 -336 -632 -360 -673 -365
-104 -14 -196 99 -163 199 15 46 44 72 154 138 76 46 96 64 115 100 39 76 20
151 -52 204 -21 16 -42 21 -84 20 -62 -1 -84 -11 -272 -124 -136 -82 -154 -90
-200 -90 -85 0 -150 74 -150 170 0 54 38 95 145 155 47 26 95 59 105 73 66 83
38 199 -56 238 -67 28 -99 20 -254 -67z"/>
<path d="M8658 7070 c-30 -9 -246 -130 -350 -197 -95 -60 -125 -129 -93 -211
29 -73 116 -104 198 -71 43 17 367 198 391 218 33 28 58 98 51 141 -8 48 -65
104 -122 119 -43 12 -38 12 -75 1z"/>
<path d="M8921 5780 c-13 -6 -50 -27 -83 -47 -123 -76 -144 -196 -49 -276 60
-50 132 -40 258 36 145 86 110 284 -52 294 -27 1 -61 -2 -74 -7z"/>
<path d="M9222 3860 c-269 -71 -442 -292 -442 -563 0 -112 14 -176 58 -267 71
-145 208 -252 387 -301 94 -26 249 -30 345 -10 87 18 214 81 275 136 l50 45
-74 70 c-41 39 -81 70 -89 70 -7 0 -41 -20 -75 -44 -87 -61 -115 -74 -191 -86
-97 -15 -174 1 -253 53 -120 79 -179 193 -177 342 1 129 52 229 154 305 75 56
135 73 234 68 68 -3 91 -10 143 -37 34 -18 80 -49 102 -67 21 -19 45 -34 52
-34 8 0 46 32 86 72 82 82 82 85 5 142 -69 50 -160 93 -234 111 -91 21 -265
19 -356 -5z"/>
<path d="M5522 3862 c-9 -6 -12 -127 -10 -568 l3 -559 300 0 c283 0 304 1 380
23 231 67 351 190 396 405 23 111 24 161 4 262 -33 175 -127 300 -282 375
-117 57 -153 62 -478 67 -165 2 -306 0 -313 -5z m621 -220 c70 -32 140 -102
173 -175 27 -57 29 -71 29 -177 0 -106 -2 -119 -28 -170 -38 -73 -89 -125
-162 -163 l-60 -32 -175 0 -175 0 -3 360 c-1 198 0 366 3 373 4 11 39 13 178
10 149 -4 178 -7 220 -26z"/>
<path d="M7322 3862 c-10 -7 -12 -127 -10 -568 l3 -559 458 -3 457 -2 0 100 0
100 -342 2 -343 3 -5 465 -5 465 -100 3 c-55 1 -106 -2 -113 -6z"/>
</g>
</svg>
