<svg version="1.0" xmlns="http://www.w3.org/2000/svg"
 width="469.000000pt" height="495.000000pt" viewBox="0 0 469.000000 495.000000"
 preserveAspectRatio="xMidYMid meet">

<g transform="translate(0.000000,495.000000) scale(0.100000,-0.100000)"
fill="#ffffffff" stroke="none">
<path d="M2549 4747 c-19 -12 -59 -37 -91 -56 -65 -39 -98 -89 -98 -148 0 -76
71 -143 150 -143 45 0 215 85 239 119 50 70 44 149 -15 201 -64 56 -128 66
-185 27z"/>
<path d="M2005 4439 c-61 -33 -180 -102 -265 -152 -85 -49 -208 -120 -272
-156 -446 -250 -640 -516 -679 -929 -23 -249 27 -472 154 -688 67 -114 237
-288 350 -358 175 -109 352 -159 562 -159 147 -1 249 15 381 58 144 47 216 86
639 343 77 47 196 118 264 158 68 40 133 81 143 91 32 29 48 69 48 118 0 81
-51 137 -135 150 -44 7 -68 -4 -272 -118 -107 -60 -140 -67 -196 -43 -109 47
-130 176 -40 257 36 32 164 107 573 334 58 32 195 112 304 177 109 66 216 128
236 138 81 41 105 167 44 232 -66 70 -139 76 -238 18 -37 -22 -70 -40 -71 -40
-2 0 -65 -35 -141 -79 -77 -43 -206 -117 -289 -164 -82 -46 -204 -115 -270
-153 -104 -59 -127 -69 -170 -69 -61 0 -106 29 -135 85 -23 46 -25 79 -6 123
18 43 45 66 151 130 74 44 94 61 113 97 27 55 28 92 2 144 -30 61 -63 81 -135
81 -65 -1 -91 -12 -285 -130 -151 -92 -189 -101 -259 -65 -47 24 -81 87 -81
150 0 38 5 48 43 84 23 23 76 59 117 81 45 24 83 53 96 73 74 109 4 242 -128
242 -34 0 -66 -13 -153 -61z"/>
<path d="M3308 4462 c-28 -7 -156 -79 -315 -177 -111 -69 -137 -102 -137 -176
0 -81 59 -139 142 -139 48 0 93 21 307 142 168 96 163 92 188 147 21 47 17 96
-10 137 -32 50 -115 80 -175 66z"/>
<path d="M3571 3169 c-113 -45 -191 -128 -191 -203 0 -80 66 -148 144 -148 50
0 171 55 217 99 32 29 54 100 45 144 -18 91 -125 144 -215 108z"/>
<path d="M3860 1247 c-267 -79 -430 -291 -430 -560 0 -112 14 -176 58 -267 68
-137 212 -253 368 -295 241 -65 484 -16 649 130 l40 35 -73 70 c-41 39 -80 70
-88 70 -8 0 -48 -23 -89 -50 -103 -71 -145 -83 -263 -78 -91 4 -100 6 -152 40
-71 46 -123 101 -153 163 -102 204 -22 439 182 537 59 28 70 30 155 26 102 -4
168 -30 253 -100 25 -21 50 -38 57 -38 6 0 45 34 86 76 l75 75 -50 44 c-114
101 -248 145 -434 144 -90 0 -133 -5 -191 -22z"/>
<path d="M165 1248 c-3 -7 -4 -263 -3 -568 l3 -555 268 -3 c234 -2 280 0 365
17 251 52 396 187 443 414 23 111 24 161 4 264 -40 212 -179 358 -400 419 -82
23 -672 34 -680 12z m630 -216 c68 -31 138 -102 172 -176 25 -55 28 -71 28
-171 0 -100 -3 -116 -29 -172 -34 -75 -95 -134 -174 -171 -55 -26 -64 -27
-227 -27 l-170 0 -3 360 c-1 198 0 366 3 373 4 11 40 13 178 10 154 -3 177 -5
222 -26z"/>
<path d="M1965 1248 c-3 -7 -4 -263 -3 -568 l3 -555 458 -3 457 -2 0 100 0
100 -340 0 c-187 0 -341 1 -342 3 -1 1 -5 211 -8 467 l-5 465 -108 3 c-80 2
-109 -1 -112 -10z"/>
</g>
</svg>
